<svg xmlns="http://www.w3.org/2000/svg" xmlns:xlink="http://www.w3.org/1999/xlink" width="400" zoomAndPan="magnify" viewBox="0 0 1440 809.999993" height="400" preserveAspectRatio="xMidYMid meet" version="1.2"><g id="d9f909e90f"><path style=" stroke:none;fill-rule:nonzero;fill:#f7931a;fill-opacity:1;" d="M 1038.214844 484.648438 C 994.449219 660.191406 816.65625 767.019531 641.097656 723.246094 C 465.609375 679.480469 358.777344 501.679688 402.5625 326.148438 C 446.308594 150.589844 624.101562 43.746094 799.609375 87.511719 C 975.160156 131.277344 1081.980469 309.101562 1038.214844 484.648438 Z M 1038.214844 484.648438 "/><path style=" stroke:none;fill-rule:nonzero;fill:#ffffff;fill-opacity:1;" d="M 864.855469 358.703125 C 871.378906 315.101562 838.183594 291.660156 792.789062 276.027344 L 807.515625 216.960938 L 771.5625 208.003906 L 757.226562 265.507812 C 747.777344 263.15625 738.066406 260.933594 728.421875 258.730469 L 742.859375 200.84375 L 706.929688 191.886719 L 692.195312 250.929688 C 684.371094 249.144531 676.691406 247.386719 669.238281 245.53125 L 669.277344 245.347656 L 619.695312 232.96875 L 610.132812 271.367188 C 610.132812 271.367188 636.808594 277.480469 636.246094 277.859375 C 650.804688 281.492188 653.4375 291.128906 652.996094 298.769531 L 636.222656 366.054688 C 637.226562 366.308594 638.527344 366.679688 639.960938 367.25 C 638.761719 366.953125 637.484375 366.625 636.164062 366.308594 L 612.652344 460.566406 C 610.871094 464.988281 606.355469 471.625 596.175781 469.105469 C 596.535156 469.628906 570.042969 462.582031 570.042969 462.582031 L 552.195312 503.738281 L 598.980469 515.398438 C 607.6875 517.582031 616.214844 519.863281 624.613281 522.015625 L 609.734375 581.753906 L 645.644531 590.714844 L 660.378906 531.609375 C 670.1875 534.273438 679.710938 536.730469 689.03125 539.042969 L 674.347656 597.871094 L 710.296875 606.832031 L 725.175781 547.203125 C 786.480469 558.804688 832.582031 554.125 851.984375 498.679688 C 867.621094 454.03125 851.207031 428.28125 818.953125 411.488281 C 842.441406 406.070312 860.136719 390.617188 864.855469 358.703125 Z M 782.714844 473.886719 C 771.601562 518.53125 696.433594 494.398438 672.0625 488.347656 L 691.804688 409.203125 C 716.175781 415.285156 794.324219 427.328125 782.714844 473.886719 Z M 793.832031 358.054688 C 783.695312 398.667969 721.132812 378.035156 700.835938 372.976562 L 718.734375 301.195312 C 739.03125 306.253906 804.390625 315.695312 793.832031 358.054688 Z M 793.832031 358.054688 "/></g></svg>