<svg xmlns="http://www.w3.org/2000/svg" xmlns:xlink="http://www.w3.org/1999/xlink" width="400" zoomAndPan="magnify" viewBox="0 0 1440 809.999993" height="400" preserveAspectRatio="xMidYMid meet" version="1.2"><defs><clipPath id="486af900d7"><path d="M 365.144531 50.144531 L 1073.894531 50.144531 L 1073.894531 758.894531 L 365.144531 758.894531 Z M 365.144531 50.144531 "/></clipPath></defs><g id="ac73fa2466"><path style=" stroke:none;fill-rule:nonzero;fill:#b4dd7f;fill-opacity:1;" d="M 605.203125 587.421875 L 605.203125 633.148438 C 605.203125 696.242188 553.984375 747.460938 490.890625 747.460938 L 490.890625 678.871094 C 490.890625 623.636719 530.230469 577.464844 582.339844 566.835938 C 589.664062 565.363281 597.300781 564.558594 605.203125 564.558594 L 605.203125 587.421875 "/><path style=" stroke:none;fill-rule:nonzero;fill:#b4dd7f;fill-opacity:1;" d="M 490.890625 678.871094 L 490.890625 747.460938 C 459.320312 747.460938 430.738281 734.644531 410.066406 713.972656 C 389.390625 693.296875 376.574219 664.71875 376.574219 633.148438 L 376.574219 564.558594 C 384.476562 564.558594 392.113281 565.363281 399.4375 566.835938 C 446.414062 588.089844 452.128906 592.78125 457.398438 598.046875 C 478.074219 618.722656 490.890625 647.300781 490.890625 678.871094 "/><path style=" stroke:none;fill-rule:nonzero;fill:#ffeaa7;fill-opacity:1;" d="M 578.8125 500.210938 C 581.089844 511.867188 582.339844 523.746094 582.339844 535.84375 L 582.339844 566.835938 C 530.230469 577.464844 490.890625 623.636719 490.890625 678.871094 C 490.890625 647.300781 478.074219 618.722656 457.398438 598.046875 C 452.128906 592.78125 446.414062 588.089844 399.4375 566.835938 L 399.4375 535.84375 C 399.4375 527.628906 400.019531 519.503906 401.132812 511.507812 C 404.214844 488.78125 411.671875 467.035156 422.878906 447.25 C 429.175781 436.175781 436.722656 425.683594 445.296875 416.082031 C 447.441406 413.761719 449.628906 411.484375 451.90625 409.207031 C 457.039062 404.070312 463.113281 400.050781 469.722656 397.328125 L 469.855469 397.328125 C 476.464844 394.558594 483.566406 393.085938 490.890625 393.085938 C 502.988281 393.085938 514.777344 397.105469 524.246094 404.292969 C 526.210938 405.769531 528.175781 407.507812 529.871094 409.207031 C 546.660156 425.996094 559.835938 445.777344 568.722656 467.257812 C 573.097656 477.882812 576.492188 488.871094 578.8125 500.210938 "/><path style=" stroke:none;fill-rule:nonzero;fill:#ccd1d9;fill-opacity:1;" d="M 1016.734375 290.203125 L 1016.734375 313.066406 C 1016.734375 325.660156 1006.464844 335.929688 993.871094 335.929688 L 628.066406 335.929688 C 620.652344 335.929688 614 332.265625 609.757812 326.773438 C 606.898438 322.890625 605.203125 318.203125 605.203125 313.066406 L 605.203125 290.203125 C 605.203125 277.609375 615.472656 267.339844 628.066406 267.339844 L 993.871094 267.339844 C 1006.464844 267.339844 1016.734375 277.609375 1016.734375 290.203125 "/><path style=" stroke:none;fill-rule:nonzero;fill:#e6e9ed;fill-opacity:1;" d="M 578.8125 500.210938 L 610.25 395.273438 L 628.066406 335.929688 L 993.871094 335.929688 L 1055.71875 542.140625 C 1060.183594 557.011719 1062.460938 572.460938 1062.460938 588 C 1062.460938 631.984375 1044.644531 671.90625 1015.707031 700.707031 C 986.90625 729.644531 946.984375 747.460938 903 747.460938 L 833.832031 747.460938 L 815.746094 702.316406 C 812.667969 694.636719 806.503906 688.832031 798.734375 686.195312 L 787.527344 682.535156 C 780.558594 680.121094 774.84375 675.210938 771.539062 668.601562 L 770.960938 667.441406 C 767.296875 660.25 760.6875 654.847656 752.875 652.929688 L 731.886719 647.660156 C 724.074219 645.738281 717.464844 640.335938 713.800781 633.148438 C 710.140625 625.957031 703.53125 620.554688 695.71875 618.632812 L 669.773438 612.113281 C 664.996094 610.953125 660.53125 608.453125 656.867188 604.792969 L 647.625 595.546875 C 642.488281 590.414062 635.390625 587.421875 627.933594 587.421875 L 605.203125 587.421875 L 605.203125 564.558594 C 597.300781 564.558594 589.664062 565.363281 582.339844 566.835938 L 582.339844 535.84375 C 582.339844 523.746094 581.089844 511.867188 578.8125 500.210938 "/><path style=" stroke:none;fill-rule:nonzero;fill:#ecc19c;fill-opacity:1;" d="M 833.832031 747.460938 L 490.890625 747.460938 C 553.984375 747.460938 605.203125 696.242188 605.203125 633.148438 L 605.203125 587.421875 L 627.933594 587.421875 C 635.390625 587.421875 642.488281 590.414062 647.625 595.546875 L 656.867188 604.792969 C 660.53125 608.453125 664.996094 610.953125 669.773438 612.113281 L 695.71875 618.632812 C 703.53125 620.554688 710.140625 625.957031 713.800781 633.148438 C 717.464844 640.335938 724.074219 645.738281 731.886719 647.660156 L 752.875 652.929688 C 760.6875 654.847656 767.296875 660.25 770.960938 667.441406 L 771.539062 668.601562 C 774.84375 675.210938 780.558594 680.121094 787.527344 682.535156 L 798.734375 686.195312 C 806.503906 688.832031 812.667969 694.636719 815.746094 702.316406 L 833.832031 747.460938 "/><path style=" stroke:none;fill-rule:nonzero;fill:#ecc19c;fill-opacity:1;" d="M 890.988281 141.59375 L 912.691406 148.785156 C 920.59375 151.417969 926.535156 157.804688 928.5 165.839844 L 934.082031 187.988281 C 935.6875 194.867188 940.378906 200.582031 946.671875 203.664062 L 972.484375 216.703125 C 978.78125 219.785156 983.46875 225.5 985.074219 232.375 L 993.871094 267.339844 L 628.066406 267.339844 L 628.066406 238.984375 C 628.066406 228.582031 634.71875 219.425781 644.542969 216.121094 L 650.929688 213.980469 C 658.117188 211.566406 663.746094 205.941406 666.15625 198.75 L 669.550781 188.480469 C 672.183594 180.578125 678.570312 174.636719 686.609375 172.671875 L 707.640625 167.449219 C 715.050781 165.617188 721.214844 160.214844 724.074219 153.027344 L 737.824219 118.730469 C 740.683594 111.542969 746.847656 106.140625 754.257812 104.308594 L 779.085938 98.144531 C 784.890625 96.671875 789.9375 93.144531 793.242188 88.097656 L 803.78125 72.335938 C 808.335938 65.59375 815.746094 61.574219 823.875 61.574219 C 830.304688 61.574219 836.332031 64.074219 840.933594 68.675781 L 865.402344 93.144531 C 867.1875 94.929688 869.289062 96.449219 871.65625 97.566406 L 877.726562 100.648438 C 885.855469 104.664062 890.988281 113.015625 890.988281 122.171875 L 890.988281 141.59375 "/><path style=" stroke:none;fill-rule:nonzero;fill:#ffc729;fill-opacity:1;" d="M 628.066406 175.890625 L 628.066406 244.476562 C 628.066406 257.070312 587.117188 267.339844 536.613281 267.339844 C 486.109375 267.339844 445.164062 257.070312 445.164062 244.476562 L 445.164062 175.890625 C 445.164062 188.480469 486.109375 198.75 536.613281 198.75 C 587.117188 198.75 628.066406 188.480469 628.066406 175.890625 "/><path style=" stroke:none;fill-rule:nonzero;fill:#ffc729;fill-opacity:1;" d="M 628.066406 335.929688 L 610.25 395.273438 C 593.636719 400.855469 566.800781 404.519531 536.613281 404.519531 C 532.371094 404.519531 528.265625 404.382812 524.246094 404.292969 C 514.777344 397.105469 502.988281 393.085938 490.890625 393.085938 C 483.566406 393.085938 476.464844 394.558594 469.855469 397.328125 L 469.722656 397.328125 C 454.539062 393.21875 445.164062 387.726562 445.164062 381.65625 L 445.164062 313.066406 C 445.164062 325.660156 486.109375 335.929688 536.613281 335.929688 C 566.578125 335.929688 593.101562 332.402344 609.757812 326.773438 C 614 332.265625 620.652344 335.929688 628.066406 335.929688 "/><path style=" stroke:none;fill-rule:nonzero;fill:#ffc729;fill-opacity:1;" d="M 445.164062 381.65625 L 445.164062 415.949219 L 445.296875 416.082031 C 436.722656 425.683594 429.175781 436.175781 422.878906 447.25 C 395.195312 443.367188 376.574219 435.953125 376.574219 427.378906 L 376.574219 358.792969 C 376.574219 369.417969 405.734375 378.351562 445.164062 380.984375 L 445.164062 381.65625 "/><path style=" stroke:none;fill-rule:nonzero;fill:#ffc729;fill-opacity:1;" d="M 445.164062 244.476562 L 445.164062 312.394531 C 405.734375 309.761719 376.574219 300.832031 376.574219 290.203125 L 376.574219 221.613281 C 376.574219 232.242188 405.734375 241.171875 445.164062 243.808594 L 445.164062 244.476562 "/><path style=" stroke:none;fill-rule:nonzero;fill:#ffc729;fill-opacity:1;" d="M 559.476562 84.4375 L 559.476562 153.828125 C 552.152344 153.25 544.519531 153.027344 536.613281 153.027344 C 487.003906 153.027344 446.636719 162.984375 445.296875 175.21875 L 445.164062 175.21875 C 405.734375 172.671875 376.574219 163.652344 376.574219 153.027344 L 376.574219 84.4375 C 376.574219 97.03125 417.523438 107.300781 468.027344 107.300781 C 518.53125 107.300781 559.476562 97.03125 559.476562 84.4375 "/><path style=" stroke:none;fill-rule:nonzero;fill:#fcd770;fill-opacity:1;" d="M 468.027344 61.574219 C 518.53125 61.574219 559.476562 71.84375 559.476562 84.4375 C 559.476562 97.03125 518.53125 107.300781 468.027344 107.300781 C 417.523438 107.300781 376.574219 97.03125 376.574219 84.4375 C 376.574219 71.84375 417.523438 61.574219 468.027344 61.574219 "/><path style=" stroke:none;fill-rule:nonzero;fill:#fcd770;fill-opacity:1;" d="M 445.164062 175.21875 L 445.296875 175.21875 C 445.164062 175.441406 445.164062 175.664062 445.164062 175.890625 L 445.164062 243.808594 C 405.734375 241.171875 376.574219 232.242188 376.574219 221.613281 L 376.574219 153.027344 C 376.574219 163.652344 405.734375 172.671875 445.164062 175.21875 "/><path style=" stroke:none;fill-rule:nonzero;fill:#fcd770;fill-opacity:1;" d="M 445.164062 313.066406 L 445.164062 380.984375 C 405.734375 378.351562 376.574219 369.417969 376.574219 358.792969 L 376.574219 290.203125 C 376.574219 300.832031 405.734375 309.761719 445.164062 312.394531 L 445.164062 313.066406 "/><path style=" stroke:none;fill-rule:nonzero;fill:#fcd770;fill-opacity:1;" d="M 422.878906 447.25 C 411.671875 467.035156 404.214844 488.78125 401.132812 511.507812 L 401.042969 511.507812 C 385.816406 507.535156 376.574219 502.042969 376.574219 495.96875 L 376.574219 427.378906 C 376.574219 435.953125 395.195312 443.367188 422.878906 447.25 "/><path style=" stroke:none;fill-rule:nonzero;fill:#fcd770;fill-opacity:1;" d="M 610.25 395.273438 L 578.8125 500.210938 C 576.492188 488.871094 573.097656 477.882812 568.722656 467.257812 C 559.835938 445.777344 546.660156 425.996094 529.871094 409.207031 C 528.175781 407.507812 526.210938 405.769531 524.246094 404.292969 C 528.265625 404.382812 532.371094 404.519531 536.613281 404.519531 C 566.800781 404.519531 593.636719 400.855469 610.25 395.273438 "/><path style=" stroke:none;fill-rule:nonzero;fill:#fcd770;fill-opacity:1;" d="M 628.066406 267.339844 C 615.472656 267.339844 605.203125 277.609375 605.203125 290.203125 L 605.203125 313.066406 C 605.203125 318.203125 606.898438 322.890625 609.757812 326.773438 C 593.101562 332.402344 566.578125 335.929688 536.613281 335.929688 C 486.109375 335.929688 445.164062 325.660156 445.164062 313.066406 L 445.164062 244.476562 C 445.164062 257.070312 486.109375 267.339844 536.613281 267.339844 C 587.117188 267.339844 628.066406 257.070312 628.066406 244.476562 L 628.066406 267.339844 "/><path style=" stroke:none;fill-rule:nonzero;fill:#fcd770;fill-opacity:1;" d="M 559.476562 153.828125 C 598.90625 156.332031 628.066406 165.261719 628.066406 175.890625 C 628.066406 188.480469 587.117188 198.75 536.613281 198.75 C 486.109375 198.75 445.164062 188.480469 445.164062 175.890625 C 445.164062 175.664062 445.164062 175.441406 445.296875 175.21875 C 446.636719 162.984375 487.003906 153.027344 536.613281 153.027344 C 544.519531 153.027344 552.152344 153.25 559.476562 153.828125 "/><path style=" stroke:none;fill-rule:nonzero;fill:#000000;fill-opacity:1;" d="M 433.730469 541.695312 L 456.59375 541.695312 L 456.59375 518.832031 L 433.730469 518.832031 L 433.730469 541.695312 "/><path style=" stroke:none;fill-rule:nonzero;fill:#000000;fill-opacity:1;" d="M 433.730469 495.96875 L 456.59375 495.96875 L 456.59375 473.105469 L 433.730469 473.105469 L 433.730469 495.96875 "/><path style=" stroke:none;fill-rule:nonzero;fill:#000000;fill-opacity:1;" d="M 502.320312 518.832031 L 479.457031 518.832031 L 479.457031 541.695312 L 502.320312 541.695312 L 502.320312 518.832031 "/><path style=" stroke:none;fill-rule:nonzero;fill:#000000;fill-opacity:1;" d="M 502.320312 564.558594 L 479.457031 564.558594 L 479.457031 587.421875 L 502.320312 587.421875 L 502.320312 564.558594 "/><path style=" stroke:none;fill-rule:nonzero;fill:#000000;fill-opacity:1;" d="M 548.046875 518.832031 L 525.183594 518.832031 L 525.183594 541.695312 L 548.046875 541.695312 L 548.046875 518.832031 "/><path style=" stroke:none;fill-rule:nonzero;fill:#000000;fill-opacity:1;" d="M 502.320312 473.105469 L 479.457031 473.105469 L 479.457031 495.96875 L 502.320312 495.96875 L 502.320312 473.105469 "/><path style=" stroke:none;fill-rule:nonzero;fill:#000000;fill-opacity:1;" d="M 548.046875 473.105469 L 525.183594 473.105469 L 525.183594 495.96875 L 548.046875 495.96875 L 548.046875 473.105469 "/><path style=" stroke:none;fill-rule:nonzero;fill:#000000;fill-opacity:1;" d="M 502.320312 427.378906 L 479.457031 427.378906 L 479.457031 450.242188 L 502.320312 450.242188 L 502.320312 427.378906 "/><g clip-rule="nonzero" clip-path="url(#486af900d7)"><path style=" stroke:none;fill-rule:nonzero;fill:#000000;fill-opacity:1;" d="M 902.957031 736.03125 L 841.558594 736.03125 L 826.375 698.03125 C 822.089844 687.3125 813.335938 679.050781 802.351562 675.390625 L 791.230469 671.683594 C 787.078125 670.300781 783.6875 667.351562 781.765625 663.511719 L 781.183594 662.304688 C 776.050781 652.082031 766.71875 644.578125 755.597656 641.808594 L 734.699219 636.585938 C 730.054688 635.425781 726.171875 632.296875 724.027344 628.011719 C 718.894531 617.785156 709.558594 610.285156 698.441406 607.515625 L 672.585938 601.039062 C 669.726562 600.324219 667.09375 598.851562 664.996094 596.753906 L 655.707031 587.464844 C 648.292969 580.054688 638.46875 575.988281 627.976562 575.988281 L 616.636719 575.988281 L 616.636719 553.125 L 605.203125 553.125 C 601.363281 553.125 597.566406 553.351562 593.773438 553.707031 L 593.773438 535.800781 C 593.773438 523.96875 592.609375 512.359375 590.511719 500.972656 L 636.550781 347.359375 L 985.386719 347.359375 L 1044.777344 545.402344 C 1048.929688 559.246094 1051.03125 573.535156 1051.03125 587.957031 C 1051.03125 669.585938 984.628906 736.03125 902.957031 736.03125 Z M 616.636719 633.148438 L 616.636719 598.851562 L 627.976562 598.851562 C 632.351562 598.851562 636.460938 600.550781 639.542969 603.628906 L 648.832031 612.917969 C 653.875 617.964844 660.171875 621.535156 667.050781 623.234375 L 692.902344 629.707031 C 697.546875 630.871094 701.433594 633.996094 703.578125 638.28125 C 708.710938 648.507812 718.042969 656.011719 729.164062 658.777344 L 750.0625 664.003906 C 754.707031 665.164062 758.589844 668.289062 760.734375 672.53125 L 761.3125 673.691406 C 766.003906 683.070312 774.039062 690.035156 784 693.339844 L 795.117188 697.089844 C 799.714844 698.609375 803.332031 702.046875 805.121094 706.511719 L 816.953125 736.03125 L 639.496094 736.03125 L 639.496094 727.277344 C 639.496094 722.945312 641.910156 719.015625 645.792969 717.097656 L 656.0625 711.960938 L 645.792969 691.511719 L 635.566406 696.601562 C 623.914062 702.449219 616.636719 714.238281 616.636719 727.277344 L 616.636719 736.03125 L 562.960938 736.03125 C 595.378906 713.257812 616.636719 675.65625 616.636719 633.148438 Z M 388.003906 633.148438 L 388.003906 576.613281 C 439.359375 582.332031 479.457031 626.003906 479.457031 678.871094 L 479.457031 735.359375 C 428.105469 729.644531 388.003906 686.015625 388.003906 633.148438 Z M 410.867188 535.800781 C 410.867188 491.058594 428.285156 448.992188 459.945312 417.332031 C 476.464844 400.8125 505.3125 400.8125 521.835938 417.332031 C 553.492188 448.992188 570.910156 491.058594 570.910156 535.800781 L 570.910156 557.949219 C 535.363281 568.042969 506.117188 593.40625 490.890625 626.492188 C 475.660156 593.40625 446.457031 568.042969 410.867188 557.949219 Z M 388.003906 493.960938 L 388.003906 450.824219 C 393.050781 452.746094 398.992188 454.351562 405.777344 455.824219 C 399.75 468.773438 395.105469 482.304688 392.160156 496.371094 C 390.058594 495.34375 388.675781 494.496094 388.003906 493.960938 Z M 468.027344 118.730469 C 479.503906 118.730469 521.386719 117.929688 548.046875 107.746094 L 548.046875 141.816406 C 543.132812 141.640625 539.117188 141.59375 536.613281 141.59375 C 522.011719 141.59375 458.246094 142.84375 439.222656 163.207031 C 408.054688 160.484375 391.757812 154.1875 388.003906 150.972656 L 388.003906 107.835938 C 414.664062 118.015625 456.59375 118.730469 468.027344 118.730469 Z M 468.027344 73.003906 C 508.527344 73.003906 535.050781 79.523438 544.921875 84.4375 C 535.050781 89.347656 508.527344 95.867188 468.027344 95.867188 C 427.523438 95.867188 401 89.347656 391.132812 84.4375 C 401 79.523438 427.523438 73.003906 468.027344 73.003906 Z M 536.613281 187.320312 C 496.113281 187.320312 469.589844 180.800781 459.71875 175.890625 C 469.589844 170.976562 496.113281 164.457031 536.613281 164.457031 C 577.117188 164.457031 603.640625 170.976562 613.507812 175.890625 C 603.640625 180.800781 577.117188 187.320312 536.613281 187.320312 Z M 648.160156 226.972656 L 654.546875 224.828125 C 665.085938 221.300781 673.480469 212.90625 677.007812 202.367188 L 680.445312 192.054688 C 681.828125 187.902344 685.179688 184.820312 689.375 183.792969 L 710.363281 178.523438 C 721.394531 175.753906 730.503906 167.804688 734.699219 157.269531 L 748.410156 122.972656 C 749.925781 119.222656 753.1875 116.363281 757.070312 115.425781 L 781.855469 109.21875 C 790.429688 107.078125 797.886719 101.808594 802.796875 94.484375 L 813.335938 78.632812 C 817.535156 72.335938 827.445312 71.355469 832.804688 76.710938 L 857.277344 101.183594 C 860 103.90625 863.082031 106.140625 866.519531 107.835938 L 872.59375 110.871094 C 876.878906 113.015625 879.558594 117.347656 879.558594 122.171875 L 879.558594 125.742188 L 860.3125 119.3125 L 853.078125 141.015625 L 909.121094 159.679688 C 913.273438 161.0625 916.351562 164.414062 917.378906 168.609375 L 922.917969 190.757812 C 925.460938 200.851562 932.207031 209.289062 941.492188 213.933594 L 967.4375 226.882812 C 970.742188 228.535156 973.152344 231.527344 974.046875 235.144531 L 979.226562 255.910156 L 842.046875 255.910156 L 836.867188 240.28125 C 833.476562 230.097656 825.347656 221.972656 815.167969 218.578125 L 791.722656 210.765625 L 784.488281 232.464844 L 807.933594 240.28125 C 811.328125 241.394531 814.050781 244.121094 815.167969 247.515625 L 817.980469 255.910156 L 639.496094 255.910156 L 639.496094 238.984375 C 639.496094 233.539062 642.980469 228.714844 648.160156 226.972656 Z M 616.636719 242.378906 C 611.277344 247.246094 583.324219 255.910156 536.613281 255.910156 C 489.90625 255.910156 461.953125 247.246094 456.59375 242.378906 L 456.59375 199.289062 C 483.253906 209.46875 525.136719 210.183594 536.613281 210.183594 C 548.089844 210.183594 589.976562 209.378906 616.636719 199.199219 Z M 594.398438 319.09375 C 578.722656 322.488281 558.136719 324.496094 536.613281 324.496094 C 489.90625 324.496094 461.953125 315.835938 456.59375 310.96875 L 456.59375 267.785156 C 483.253906 277.96875 525.136719 278.773438 536.613281 278.773438 C 545.722656 278.773438 573.945312 278.28125 598.59375 272.96875 C 595.601562 278.058594 593.773438 283.90625 593.773438 290.203125 L 593.773438 313.066406 C 593.773438 315.121094 594.039062 317.128906 594.398438 319.09375 Z M 388.003906 176.378906 C 401.535156 181.558594 418.816406 184.285156 433.730469 185.710938 L 433.730469 231.304688 C 406 228.355469 391.535156 222.597656 388.003906 219.5625 Z M 388.003906 244.96875 C 401.535156 250.148438 418.863281 252.871094 433.730469 254.300781 L 433.730469 299.894531 C 406 296.945312 391.535156 291.1875 388.003906 288.148438 Z M 388.003906 313.558594 C 401.535156 318.738281 418.863281 321.460938 433.730469 322.890625 L 433.730469 368.480469 C 406 365.535156 391.535156 359.773438 388.003906 356.738281 Z M 417.164062 434.75 C 398.945312 431.488281 390.507812 427.335938 388.003906 425.371094 L 388.003906 382.144531 C 401.535156 387.324219 418.863281 390.050781 433.730469 391.480469 L 433.730469 412.242188 C 427.613281 419.386719 422.121094 426.890625 417.164062 434.75 Z M 601.09375 386.03125 C 584.886719 390.496094 561.398438 393.085938 536.613281 393.085938 C 533.710938 393.085938 530.855469 392.996094 527.996094 392.953125 C 517.101562 385.585938 504.285156 381.65625 490.890625 381.65625 C 483.476562 381.65625 476.242188 382.90625 469.410156 385.273438 C 461.507812 382.859375 457.933594 380.671875 456.59375 379.644531 L 456.59375 336.375 C 483.253906 346.558594 525.136719 347.359375 536.613281 347.359375 C 563.40625 347.359375 588.367188 344.59375 606.632812 339.636719 C 608.820312 341.378906 611.140625 342.894531 613.6875 344.101562 Z M 551.039062 415.636719 C 566.53125 415.054688 581.046875 413.492188 593.546875 411.125 L 578.542969 461.183594 C 571.625 444.886719 562.425781 429.570312 551.039062 415.636719 Z M 502.320312 678.871094 C 502.320312 626.003906 542.417969 582.332031 593.773438 576.613281 L 593.773438 633.148438 C 593.773438 686.015625 553.671875 729.644531 502.320312 735.359375 Z M 1005.304688 313.066406 C 1005.304688 319.363281 1000.167969 324.496094 993.871094 324.496094 L 628.066406 324.496094 C 621.769531 324.496094 616.636719 319.363281 616.636719 313.066406 L 616.636719 290.203125 C 616.636719 283.90625 621.769531 278.773438 628.066406 278.773438 L 993.871094 278.773438 C 1000.167969 278.773438 1005.304688 283.90625 1005.304688 290.203125 Z M 1066.703125 538.835938 L 1008.25 344.101562 C 1019.996094 338.609375 1028.167969 326.820312 1028.167969 313.066406 L 1028.167969 290.203125 C 1028.167969 274.53125 1017.539062 261.445312 1003.160156 257.339844 L 996.238281 229.609375 C 993.695312 219.515625 986.953125 211.078125 977.664062 206.433594 L 951.71875 193.484375 C 948.414062 191.832031 946.003906 188.839844 945.109375 185.222656 L 939.574219 163.074219 C 936.625 151.238281 927.964844 141.863281 916.351562 137.976562 L 902.421875 133.378906 L 902.421875 122.171875 C 902.421875 108.640625 894.917969 96.449219 882.773438 90.421875 L 876.746094 87.382812 C 875.539062 86.804688 874.421875 86 873.441406 85.019531 L 848.96875 60.546875 C 842.359375 53.9375 833.207031 50.144531 823.875 50.144531 C 811.953125 50.144531 800.921875 56.039062 794.3125 65.949219 L 783.773438 81.800781 C 782.035156 84.390625 779.355469 86.269531 776.316406 87.027344 L 751.535156 93.234375 C 740.503906 96.003906 731.394531 103.949219 727.199219 114.488281 L 713.488281 148.785156 C 711.972656 152.535156 708.710938 155.394531 704.78125 156.332031 L 683.839844 161.597656 C 672.007812 164.546875 662.628906 173.210938 658.742188 184.820312 L 655.304688 195.132812 C 654.054688 198.929688 651.109375 201.878906 647.3125 203.128906 L 640.925781 205.269531 C 640.433594 205.449219 639.988281 205.71875 639.496094 205.894531 L 639.496094 175.890625 C 639.496094 154.097656 601.40625 146.148438 570.910156 143.246094 L 570.910156 84.4375 C 570.910156 51.796875 485.21875 50.144531 468.027344 50.144531 C 450.835938 50.144531 365.144531 51.796875 365.144531 84.4375 L 365.144531 495.96875 C 365.144531 509.007812 378.449219 516.019531 388.808594 519.726562 C 388.363281 525.039062 388.003906 530.398438 388.003906 535.800781 L 388.003906 553.707031 C 384.210938 553.351562 380.414062 553.125 376.574219 553.125 L 365.144531 553.125 L 365.144531 633.148438 C 365.144531 702.496094 421.539062 758.894531 490.890625 758.894531 L 902.957031 758.894531 C 997.222656 758.894531 1073.894531 682.222656 1073.894531 587.957031 C 1073.894531 571.34375 1071.480469 554.824219 1066.703125 538.835938 "/></g><path style=" stroke:none;fill-rule:nonzero;fill:#000000;fill-opacity:1;" d="M 936.714844 439.972656 L 936.714844 415.949219 L 913.851562 415.949219 L 913.851562 438.8125 L 868.125 438.8125 L 868.125 495.96875 C 868.125 527.496094 893.757812 553.125 925.285156 553.125 C 944.21875 553.125 959.578125 568.488281 959.578125 587.421875 L 959.578125 621.714844 L 925.285156 621.714844 C 906.351562 621.714844 890.988281 606.355469 890.988281 587.421875 L 890.988281 553.125 L 868.125 553.125 L 868.125 587.421875 C 868.125 615.015625 887.773438 638.101562 913.851562 643.417969 L 913.851562 667.441406 L 936.714844 667.441406 L 936.714844 644.578125 L 982.441406 644.578125 L 982.441406 587.421875 C 982.441406 555.894531 956.808594 530.265625 925.285156 530.265625 C 906.351562 530.265625 890.988281 514.902344 890.988281 495.96875 L 890.988281 461.675781 L 925.285156 461.675781 C 944.21875 461.675781 959.578125 477.035156 959.578125 495.96875 L 959.578125 530.265625 L 982.441406 530.265625 L 982.441406 495.96875 C 982.441406 468.375 962.792969 445.285156 936.714844 439.972656 "/><path style=" stroke:none;fill-rule:nonzero;fill:#000000;fill-opacity:1;" d="M 655.527344 667.933594 L 663.566406 684.007812 L 684.019531 673.738281 L 675.980469 657.707031 C 672.675781 651.140625 667.226562 645.695312 660.664062 642.390625 L 644.632812 634.351562 L 634.363281 654.804688 L 650.4375 662.796875 C 652.625 663.914062 654.457031 665.746094 655.527344 667.933594 "/><path style=" stroke:none;fill-rule:nonzero;fill:#000000;fill-opacity:1;" d="M 708.085938 717.902344 C 714.113281 711.871094 724.921875 711.871094 730.949219 717.902344 L 734.296875 721.25 L 750.464844 705.085938 L 747.113281 701.734375 C 732.378906 687 706.65625 687 691.921875 701.734375 L 688.574219 705.085938 L 704.738281 721.25 L 708.085938 717.902344 "/><path style=" stroke:none;fill-rule:nonzero;fill:#000000;fill-opacity:1;" d="M 776.140625 166.066406 C 783.460938 162.402344 793.019531 165.574219 796.726562 172.941406 L 800.742188 181.023438 L 821.195312 170.753906 L 817.175781 162.714844 C 810.65625 149.675781 797.574219 141.59375 782.972656 141.59375 C 777.078125 141.59375 771.183594 142.980469 765.914062 145.613281 L 748.675781 154.230469 L 758.949219 174.683594 L 776.140625 166.066406 "/><path style=" stroke:none;fill-rule:nonzero;fill:#000000;fill-opacity:1;" d="M 887.058594 216.480469 L 892.195312 226.75 L 912.648438 216.480469 L 907.554688 206.253906 C 901.660156 194.597656 889.917969 187.320312 876.878906 187.320312 L 856.695312 187.320312 L 856.695312 210.183594 L 876.878906 210.183594 C 881.210938 210.183594 885.140625 212.59375 887.058594 216.480469 "/><path style=" stroke:none;fill-rule:nonzero;fill:#000000;fill-opacity:1;" d="M 733.984375 225.8125 C 737.113281 216.480469 745.820312 210.183594 755.644531 210.183594 L 765.242188 210.183594 L 765.242188 187.320312 L 755.644531 187.320312 C 735.949219 187.320312 718.535156 199.867188 712.285156 218.578125 L 708.667969 229.429688 L 730.367188 236.664062 L 733.984375 225.8125 "/><path style=" stroke:none;fill-rule:nonzero;fill:#000000;fill-opacity:1;" d="M 719.519531 479.804688 L 695.671875 455.960938 L 719.519531 432.113281 L 743.363281 455.960938 Z M 791.457031 407.867188 L 759.527344 439.792969 L 735.683594 415.949219 L 761.894531 389.738281 L 745.730469 373.574219 L 719.519531 399.785156 L 693.304688 373.574219 L 677.140625 389.738281 L 703.351562 415.949219 L 679.507812 439.792969 L 647.578125 407.867188 L 631.414062 424.03125 L 663.34375 455.960938 L 631.414062 487.886719 L 647.578125 504.050781 L 679.507812 472.125 L 703.351562 495.96875 L 677.140625 522.179688 L 693.304688 538.347656 L 719.519531 512.132812 L 745.730469 538.347656 L 761.894531 522.179688 L 735.683594 495.96875 L 759.527344 472.125 L 791.457031 504.050781 L 807.621094 487.886719 L 775.691406 455.960938 L 807.621094 424.03125 L 791.457031 407.867188 "/></g></svg>