<svg xmlns="http://www.w3.org/2000/svg" xmlns:xlink="http://www.w3.org/1999/xlink" width="400" zoomAndPan="magnify" viewBox="0 0 1440 809.999993" height="400" preserveAspectRatio="xMidYMid meet" version="1.2"><defs><clipPath id="cb58995c04"><path d="M 511.507812 446 L 721 446 L 721 744 L 511.507812 744 Z M 511.507812 446 "/></clipPath><clipPath id="be16e26fc3"><path d="M 720 446 L 928.660156 446 L 928.660156 744.363281 L 720 744.363281 Z M 720 446 "/></clipPath></defs><g id="6809f847e5"><path style=" stroke:none;fill-rule:nonzero;fill:#868dac;fill-opacity:1;" d="M 720.0625 66.335938 L 720.0625 312.511719 L 514.410156 409.132812 L 513.722656 408.730469 L 535.015625 373.382812 Z M 720.0625 66.335938 "/><g clip-rule="nonzero" clip-path="url(#cb58995c04)"><path style=" stroke:none;fill-rule:nonzero;fill:#868dac;fill-opacity:1;" d="M 720.0625 571.328125 L 720.0625 743.996094 L 511.507812 446.414062 Z M 720.0625 571.328125 "/></g><path style=" stroke:none;fill-rule:nonzero;fill:#5f658b;fill-opacity:1;" d="M 720.0625 312.511719 L 720.0625 532.320312 L 539.402344 424.109375 L 514.410156 409.132812 Z M 720.0625 312.511719 "/><path style=" stroke:none;fill-rule:nonzero;fill:#5f658b;fill-opacity:1;" d="M 926.441406 408.730469 L 925.757812 409.132812 L 720.0625 312.511719 L 720.0625 66.335938 L 905.148438 373.382812 Z M 926.441406 408.730469 "/><path style=" stroke:none;fill-rule:nonzero;fill:#434871;fill-opacity:1;" d="M 925.757812 409.132812 L 900.71875 424.109375 L 720.0625 532.320312 L 720.0625 312.511719 Z M 925.757812 409.132812 "/><g clip-rule="nonzero" clip-path="url(#be16e26fc3)"><path style=" stroke:none;fill-rule:nonzero;fill:#5f658b;fill-opacity:1;" d="M 928.652344 446.414062 L 720.105469 744.039062 L 720.0625 743.996094 L 720.0625 571.328125 Z M 928.652344 446.414062 "/></g></g></svg>