<svg xmlns="http://www.w3.org/2000/svg" xmlns:xlink="http://www.w3.org/1999/xlink" width="440" zoomAndPan="magnify" viewBox="0 0 330 74.999997" height="100" preserveAspectRatio="xMidYMid meet" version="1.2"><defs/><g id="1421a50ed0"><g style="fill:#404040;fill-opacity:1;"><g transform="translate(5.641669, 56.308538)"><path style="stroke:none" d="M 25.0625 0.8125 C 21.550781 0.8125 18.375 0.226562 15.53125 -0.9375 C 12.695312 -2.101562 10.253906 -3.734375 8.203125 -5.828125 C 6.160156 -7.921875 4.582031 -10.34375 3.46875 -13.09375 C 2.363281 -15.851562 1.8125 -18.820312 1.8125 -22 C 1.8125 -25.175781 2.363281 -28.140625 3.46875 -30.890625 C 4.582031 -33.648438 6.148438 -36.0625 8.171875 -38.125 C 10.203125 -40.195312 12.644531 -41.804688 15.5 -42.953125 C 18.363281 -44.109375 21.550781 -44.6875 25.0625 -44.6875 C 28.53125 -44.6875 31.695312 -44.109375 34.5625 -42.953125 C 37.425781 -41.804688 39.867188 -40.195312 41.890625 -38.125 C 43.921875 -36.0625 45.5 -33.640625 46.625 -30.859375 C 47.75 -28.085938 48.3125 -25.132812 48.3125 -22 C 48.3125 -18.820312 47.75 -15.851562 46.625 -13.09375 C 45.5 -10.34375 43.921875 -7.921875 41.890625 -5.828125 C 39.867188 -3.734375 37.425781 -2.101562 34.5625 -0.9375 C 31.695312 0.226562 28.53125 0.8125 25.0625 0.8125 Z M 25.0625 -8.140625 C 26.90625 -8.140625 28.609375 -8.484375 30.171875 -9.171875 C 31.742188 -9.867188 33.09375 -10.84375 34.21875 -12.09375 C 35.34375 -13.34375 36.21875 -14.8125 36.84375 -16.5 C 37.476562 -18.195312 37.796875 -20.03125 37.796875 -22 C 37.796875 -23.957031 37.476562 -25.769531 36.84375 -27.4375 C 36.21875 -29.113281 35.34375 -30.578125 34.21875 -31.828125 C 33.09375 -33.085938 31.742188 -34.0625 30.171875 -34.75 C 28.609375 -35.4375 26.90625 -35.78125 25.0625 -35.78125 C 23.1875 -35.78125 21.472656 -35.4375 19.921875 -34.75 C 18.378906 -34.0625 17.03125 -33.085938 15.875 -31.828125 C 14.726562 -30.578125 13.851562 -29.101562 13.25 -27.40625 C 12.644531 -25.71875 12.34375 -23.914062 12.34375 -22 C 12.34375 -20.03125 12.644531 -18.195312 13.25 -16.5 C 13.851562 -14.8125 14.726562 -13.34375 15.875 -12.09375 C 17.03125 -10.84375 18.378906 -9.867188 19.921875 -9.171875 C 21.472656 -8.484375 23.1875 -8.140625 25.0625 -8.140625 Z M 25.0625 -8.140625 "/></g></g><g style="fill:#404040;fill-opacity:1;"><g transform="translate(55.715368, 56.308538)"><path style="stroke:none" d="M 20.625 -32.90625 C 23.332031 -32.90625 25.738281 -32.472656 27.84375 -31.609375 C 29.957031 -30.753906 31.753906 -29.539062 33.234375 -27.96875 C 34.722656 -26.40625 35.863281 -24.566406 36.65625 -22.453125 C 37.457031 -20.347656 37.859375 -18.023438 37.859375 -15.484375 C 37.859375 -12.304688 37.195312 -9.492188 35.875 -7.046875 C 34.5625 -4.609375 32.753906 -2.695312 30.453125 -1.3125 C 28.160156 0.0625 25.488281 0.75 22.4375 0.75 C 21.144531 0.75 19.921875 0.582031 18.765625 0.25 C 17.617188 -0.0820312 16.570312 -0.5625 15.625 -1.1875 C 14.6875 -1.8125 13.90625 -2.585938 13.28125 -3.515625 L 13.09375 -3.515625 L 13.09375 13.59375 L 3.390625 13.59375 L 3.390625 -15.484375 C 3.390625 -19.035156 4.097656 -22.101562 5.515625 -24.6875 C 6.929688 -27.28125 8.9375 -29.296875 11.53125 -30.734375 C 14.125 -32.179688 17.15625 -32.90625 20.625 -32.90625 Z M 20.625 -24.5 C 19.113281 -24.5 17.804688 -24.132812 16.703125 -23.40625 C 15.597656 -22.675781 14.75 -21.671875 14.15625 -20.390625 C 13.570312 -19.117188 13.28125 -17.691406 13.28125 -16.109375 C 13.28125 -14.515625 13.570312 -13.09375 14.15625 -11.84375 C 14.75 -10.59375 15.597656 -9.597656 16.703125 -8.859375 C 17.804688 -8.128906 19.113281 -7.765625 20.625 -7.765625 C 22.125 -7.765625 23.414062 -8.128906 24.5 -8.859375 C 25.59375 -9.597656 26.441406 -10.59375 27.046875 -11.84375 C 27.648438 -13.09375 27.953125 -14.515625 27.953125 -16.109375 C 27.953125 -17.691406 27.648438 -19.117188 27.046875 -20.390625 C 26.441406 -21.671875 25.59375 -22.675781 24.5 -23.40625 C 23.414062 -24.132812 22.125 -24.5 20.625 -24.5 Z M 20.625 -24.5 "/></g></g><g style="fill:#404040;fill-opacity:1;"><g transform="translate(95.699092, 56.308538)"><path style="stroke:none" d="M 4.078125 0 L 4.078125 -8.78125 L 22.8125 -8.78125 C 23.644531 -8.78125 24.394531 -8.988281 25.0625 -9.40625 C 25.738281 -9.820312 26.273438 -10.363281 26.671875 -11.03125 C 27.066406 -11.695312 27.265625 -12.425781 27.265625 -13.21875 C 27.265625 -14.0625 27.066406 -14.816406 26.671875 -15.484375 C 26.273438 -16.148438 25.738281 -16.691406 25.0625 -17.109375 C 24.394531 -17.523438 23.644531 -17.734375 22.8125 -17.734375 L 16.046875 -17.734375 C 13.492188 -17.734375 11.171875 -18.234375 9.078125 -19.234375 C 6.992188 -20.242188 5.332031 -21.71875 4.09375 -23.65625 C 2.863281 -25.601562 2.25 -27.929688 2.25 -30.640625 C 2.25 -33.316406 2.832031 -35.632812 4 -37.59375 C 5.175781 -39.5625 6.765625 -41.097656 8.765625 -42.203125 C 10.773438 -43.316406 12.992188 -43.875 15.421875 -43.875 L 34.78125 -43.875 L 34.78125 -35.09375 L 16.609375 -35.09375 C 15.859375 -35.09375 15.164062 -34.90625 14.53125 -34.53125 C 13.90625 -34.15625 13.425781 -33.65625 13.09375 -33.03125 C 12.757812 -32.40625 12.59375 -31.710938 12.59375 -30.953125 C 12.59375 -30.203125 12.757812 -29.523438 13.09375 -28.921875 C 13.425781 -28.316406 13.90625 -27.828125 14.53125 -27.453125 C 15.164062 -27.078125 15.859375 -26.890625 16.609375 -26.890625 L 23.6875 -26.890625 C 26.488281 -26.890625 28.921875 -26.351562 30.984375 -25.28125 C 33.054688 -24.21875 34.664062 -22.734375 35.8125 -20.828125 C 36.96875 -18.929688 37.546875 -16.707031 37.546875 -14.15625 C 37.546875 -11.15625 36.945312 -8.597656 35.75 -6.484375 C 34.5625 -4.378906 32.960938 -2.769531 30.953125 -1.65625 C 28.953125 -0.550781 26.738281 0 24.3125 0 Z M 4.078125 0 "/></g></g><g style="fill:#404040;fill-opacity:1;"><g transform="translate(135.244143, 56.308538)"><path style="stroke:none" d="M 20.625 -32.90625 C 23.332031 -32.90625 25.738281 -32.472656 27.84375 -31.609375 C 29.957031 -30.753906 31.753906 -29.539062 33.234375 -27.96875 C 34.722656 -26.40625 35.863281 -24.566406 36.65625 -22.453125 C 37.457031 -20.347656 37.859375 -18.023438 37.859375 -15.484375 C 37.859375 -12.304688 37.195312 -9.492188 35.875 -7.046875 C 34.5625 -4.609375 32.753906 -2.695312 30.453125 -1.3125 C 28.160156 0.0625 25.488281 0.75 22.4375 0.75 C 21.144531 0.75 19.921875 0.582031 18.765625 0.25 C 17.617188 -0.0820312 16.570312 -0.5625 15.625 -1.1875 C 14.6875 -1.8125 13.90625 -2.585938 13.28125 -3.515625 L 13.09375 -3.515625 L 13.09375 13.59375 L 3.390625 13.59375 L 3.390625 -15.484375 C 3.390625 -19.035156 4.097656 -22.101562 5.515625 -24.6875 C 6.929688 -27.28125 8.9375 -29.296875 11.53125 -30.734375 C 14.125 -32.179688 17.15625 -32.90625 20.625 -32.90625 Z M 20.625 -24.5 C 19.113281 -24.5 17.804688 -24.132812 16.703125 -23.40625 C 15.597656 -22.675781 14.75 -21.671875 14.15625 -20.390625 C 13.570312 -19.117188 13.28125 -17.691406 13.28125 -16.109375 C 13.28125 -14.515625 13.570312 -13.09375 14.15625 -11.84375 C 14.75 -10.59375 15.597656 -9.597656 16.703125 -8.859375 C 17.804688 -8.128906 19.113281 -7.765625 20.625 -7.765625 C 22.125 -7.765625 23.414062 -8.128906 24.5 -8.859375 C 25.59375 -9.597656 26.441406 -10.59375 27.046875 -11.84375 C 27.648438 -13.09375 27.953125 -14.515625 27.953125 -16.109375 C 27.953125 -17.691406 27.648438 -19.117188 27.046875 -20.390625 C 26.441406 -21.671875 25.59375 -22.675781 24.5 -23.40625 C 23.414062 -24.132812 22.125 -24.5 20.625 -24.5 Z M 20.625 -24.5 "/></g></g><g style="fill:#404040;fill-opacity:1;"><g transform="translate(175.227867, 56.308538)"><path style="stroke:none" d="M 19.546875 0.75 C 16.253906 0.75 13.289062 0.0195312 10.65625 -1.4375 C 8.019531 -2.90625 5.9375 -4.910156 4.40625 -7.453125 C 2.882812 -10.003906 2.125 -12.867188 2.125 -16.046875 C 2.125 -19.265625 2.882812 -22.132812 4.40625 -24.65625 C 5.9375 -27.1875 8.019531 -29.191406 10.65625 -30.671875 C 13.289062 -32.160156 16.253906 -32.90625 19.546875 -32.90625 C 22.847656 -32.90625 25.804688 -32.160156 28.421875 -30.671875 C 31.035156 -29.191406 33.101562 -27.1875 34.625 -24.65625 C 36.144531 -22.132812 36.90625 -19.265625 36.90625 -16.046875 C 36.90625 -12.867188 36.144531 -10.003906 34.625 -7.453125 C 33.101562 -4.910156 31.023438 -2.90625 28.390625 -1.4375 C 25.753906 0.0195312 22.804688 0.75 19.546875 0.75 Z M 19.546875 -7.703125 C 21.097656 -7.703125 22.4375 -8.078125 23.5625 -8.828125 C 24.6875 -9.585938 25.5625 -10.59375 26.1875 -11.84375 C 26.820312 -13.09375 27.140625 -14.515625 27.140625 -16.109375 C 27.140625 -17.648438 26.820312 -19.046875 26.1875 -20.296875 C 25.5625 -21.554688 24.6875 -22.5625 23.5625 -23.3125 C 22.4375 -24.0625 21.097656 -24.4375 19.546875 -24.4375 C 18.003906 -24.4375 16.65625 -24.0625 15.5 -23.3125 C 14.351562 -22.5625 13.46875 -21.554688 12.84375 -20.296875 C 12.21875 -19.046875 11.90625 -17.648438 11.90625 -16.109375 C 11.90625 -14.515625 12.21875 -13.09375 12.84375 -11.84375 C 13.46875 -10.59375 14.351562 -9.585938 15.5 -8.828125 C 16.65625 -8.078125 18.003906 -7.703125 19.546875 -7.703125 Z M 19.546875 -7.703125 "/></g></g><g style="fill:#404040;fill-opacity:1;"><g transform="translate(213.017939, 56.308538)"><path style="stroke:none" d="M 15.421875 0 C 12.453125 0 10.128906 -0.84375 8.453125 -2.53125 C 6.785156 -4.226562 5.953125 -6.519531 5.953125 -9.40625 L 5.953125 -39.984375 L 15.734375 -39.984375 L 15.734375 -9.96875 C 15.734375 -9.46875 15.910156 -9.035156 16.265625 -8.671875 C 16.617188 -8.316406 17.046875 -8.140625 17.546875 -8.140625 L 24.5625 -8.140625 L 24.5625 0 Z M 0.6875 -24.1875 L 0.6875 -32.15625 L 24.5625 -32.15625 L 24.5625 -24.1875 Z M 0.6875 -24.1875 "/></g></g><g style="fill:#404040;fill-opacity:1;"><g transform="translate(239.903543, 56.308538)"><path style="stroke:none" d="M 15.421875 0 C 12.453125 0 10.128906 -0.84375 8.453125 -2.53125 C 6.785156 -4.226562 5.953125 -6.519531 5.953125 -9.40625 L 5.953125 -39.984375 L 15.734375 -39.984375 L 15.734375 -9.96875 C 15.734375 -9.46875 15.910156 -9.035156 16.265625 -8.671875 C 16.617188 -8.316406 17.046875 -8.140625 17.546875 -8.140625 L 24.5625 -8.140625 L 24.5625 0 Z M 0.6875 -24.1875 L 0.6875 -32.15625 L 24.5625 -32.15625 L 24.5625 -24.1875 Z M 0.6875 -24.1875 "/></g></g><g style="fill:#404040;fill-opacity:1;"><g transform="translate(265.660895, 56.308538)"><path style="stroke:none" d="M 20.4375 0 C 16.800781 0 13.601562 -0.675781 10.84375 -2.03125 C 8.082031 -3.394531 5.9375 -5.273438 4.40625 -7.671875 C 2.882812 -10.078125 2.125 -12.867188 2.125 -16.046875 C 2.125 -19.554688 2.851562 -22.5625 4.3125 -25.0625 C 5.78125 -27.570312 7.734375 -29.503906 10.171875 -30.859375 C 12.617188 -32.222656 15.328125 -32.90625 18.296875 -32.90625 C 21.679688 -32.90625 24.507812 -32.191406 26.78125 -30.765625 C 29.0625 -29.347656 30.785156 -27.414062 31.953125 -24.96875 C 33.128906 -22.53125 33.71875 -19.742188 33.71875 -16.609375 C 33.71875 -16.066406 33.6875 -15.425781 33.625 -14.6875 C 33.5625 -13.957031 33.488281 -13.382812 33.40625 -12.96875 L 12.34375 -12.96875 C 12.59375 -11.882812 13.070312 -10.96875 13.78125 -10.21875 C 14.5 -9.46875 15.398438 -8.910156 16.484375 -8.546875 C 17.566406 -8.191406 18.78125 -8.015625 20.125 -8.015625 L 29.953125 -8.015625 L 29.953125 0 Z M 12.09375 -19.046875 L 24.3125 -19.046875 C 24.226562 -19.722656 24.101562 -20.375 23.9375 -21 C 23.769531 -21.625 23.507812 -22.175781 23.15625 -22.65625 C 22.800781 -23.132812 22.394531 -23.550781 21.9375 -23.90625 C 21.476562 -24.257812 20.941406 -24.539062 20.328125 -24.75 C 19.722656 -24.957031 19.046875 -25.0625 18.296875 -25.0625 C 17.335938 -25.0625 16.484375 -24.894531 15.734375 -24.5625 C 14.984375 -24.226562 14.351562 -23.78125 13.84375 -23.21875 C 13.34375 -22.65625 12.957031 -22.007812 12.6875 -21.28125 C 12.414062 -20.550781 12.21875 -19.804688 12.09375 -19.046875 Z M 12.09375 -19.046875 "/></g></g><g style="fill:#404040;fill-opacity:1;"><g transform="translate(301.383021, 56.308538)"><path style="stroke:none" d="M 3.390625 0 L 3.390625 -22.6875 C 3.390625 -25.613281 4.222656 -27.910156 5.890625 -29.578125 C 7.554688 -31.253906 9.875 -32.09375 12.84375 -32.09375 L 22.1875 -32.09375 L 22.1875 -24.1875 L 15.234375 -24.1875 C 14.648438 -24.1875 14.144531 -23.988281 13.71875 -23.59375 C 13.300781 -23.195312 13.09375 -22.6875 13.09375 -22.0625 L 13.09375 0 Z M 3.390625 0 "/></g></g></g></svg>