<svg xmlns="http://www.w3.org/2000/svg" xmlns:xlink="http://www.w3.org/1999/xlink" width="600" zoomAndPan="magnify" viewBox="0 0 450 89.999999" height="120" preserveAspectRatio="xMidYMid meet" version="1.2"><defs/><g id="8a71927b26"><g style="fill:#404040;fill-opacity:1;"><g transform="translate(53.912138, 65.19294)"><path style="stroke:none" d="M 26.921875 0.875 C 23.148438 0.875 19.738281 0.25 16.6875 -1 C 13.632812 -2.257812 11.007812 -4.007812 8.8125 -6.25 C 6.613281 -8.5 4.921875 -11.101562 3.734375 -14.0625 C 2.546875 -17.019531 1.953125 -20.207031 1.953125 -23.625 C 1.953125 -27.03125 2.546875 -30.210938 3.734375 -33.171875 C 4.921875 -36.140625 6.601562 -38.734375 8.78125 -40.953125 C 10.957031 -43.171875 13.582031 -44.894531 16.65625 -46.125 C 19.726562 -47.363281 23.148438 -47.984375 26.921875 -47.984375 C 30.640625 -47.984375 34.035156 -47.363281 37.109375 -46.125 C 40.179688 -44.894531 42.804688 -43.171875 44.984375 -40.953125 C 47.160156 -38.734375 48.851562 -36.128906 50.0625 -33.140625 C 51.28125 -30.160156 51.890625 -26.988281 51.890625 -23.625 C 51.890625 -20.207031 51.28125 -17.019531 50.0625 -14.0625 C 48.851562 -11.101562 47.160156 -8.5 44.984375 -6.25 C 42.804688 -4.007812 40.179688 -2.257812 37.109375 -1 C 34.035156 0.25 30.640625 0.875 26.921875 0.875 Z M 26.921875 -8.75 C 28.890625 -8.75 30.710938 -9.117188 32.390625 -9.859375 C 34.078125 -10.597656 35.523438 -11.640625 36.734375 -12.984375 C 37.953125 -14.328125 38.894531 -15.90625 39.5625 -17.71875 C 40.238281 -19.539062 40.578125 -21.507812 40.578125 -23.625 C 40.578125 -25.726562 40.238281 -27.675781 39.5625 -29.46875 C 38.894531 -31.269531 37.953125 -32.84375 36.734375 -34.1875 C 35.523438 -35.53125 34.078125 -36.570312 32.390625 -37.3125 C 30.710938 -38.050781 28.890625 -38.421875 26.921875 -38.421875 C 24.898438 -38.421875 23.054688 -38.050781 21.390625 -37.3125 C 19.734375 -36.570312 18.285156 -35.53125 17.046875 -34.1875 C 15.816406 -32.84375 14.875 -31.257812 14.21875 -29.4375 C 13.570312 -27.625 13.25 -25.6875 13.25 -23.625 C 13.25 -21.507812 13.570312 -19.539062 14.21875 -17.71875 C 14.875 -15.90625 15.816406 -14.328125 17.046875 -12.984375 C 18.285156 -11.640625 19.734375 -10.597656 21.390625 -9.859375 C 23.054688 -9.117188 24.898438 -8.75 26.921875 -8.75 Z M 26.921875 -8.75 "/></g></g><g style="fill:#404040;fill-opacity:1;"><g transform="translate(107.6715, 65.19294)"><path style="stroke:none" d="M 22.140625 -35.328125 C 25.054688 -35.328125 27.644531 -34.867188 29.90625 -33.953125 C 32.175781 -33.035156 34.109375 -31.734375 35.703125 -30.046875 C 37.296875 -28.367188 38.515625 -26.394531 39.359375 -24.125 C 40.210938 -21.863281 40.640625 -19.363281 40.640625 -16.625 C 40.640625 -13.207031 39.929688 -10.1875 38.515625 -7.5625 C 37.109375 -4.945312 35.171875 -2.894531 32.703125 -1.40625 C 30.234375 0.0703125 27.363281 0.8125 24.09375 0.8125 C 22.695312 0.8125 21.382812 0.628906 20.15625 0.265625 C 18.925781 -0.0859375 17.804688 -0.597656 16.796875 -1.265625 C 15.785156 -1.941406 14.941406 -2.773438 14.265625 -3.765625 L 14.0625 -3.765625 L 14.0625 14.609375 L 3.640625 14.609375 L 3.640625 -16.625 C 3.640625 -20.4375 4.398438 -23.734375 5.921875 -26.515625 C 7.441406 -29.296875 9.59375 -31.457031 12.375 -33 C 15.164062 -34.550781 18.421875 -35.328125 22.140625 -35.328125 Z M 22.140625 -26.3125 C 20.523438 -26.3125 19.125 -25.914062 17.9375 -25.125 C 16.75 -24.34375 15.835938 -23.269531 15.203125 -21.90625 C 14.578125 -20.539062 14.265625 -19.003906 14.265625 -17.296875 C 14.265625 -15.585938 14.578125 -14.0625 15.203125 -12.71875 C 15.835938 -11.375 16.75 -10.304688 17.9375 -9.515625 C 19.125 -8.734375 20.523438 -8.34375 22.140625 -8.34375 C 23.753906 -8.34375 25.144531 -8.734375 26.3125 -9.515625 C 27.476562 -10.304688 28.382812 -11.375 29.03125 -12.71875 C 29.6875 -14.0625 30.015625 -15.585938 30.015625 -17.296875 C 30.015625 -19.003906 29.6875 -20.539062 29.03125 -21.90625 C 28.382812 -23.269531 27.476562 -24.34375 26.3125 -25.125 C 25.144531 -25.914062 23.753906 -26.3125 22.140625 -26.3125 Z M 22.140625 -26.3125 "/></g></g><g style="fill:#404040;fill-opacity:1;"><g transform="translate(150.598216, 65.19294)"><path style="stroke:none" d="M 4.375 0 L 4.375 -9.421875 L 24.5 -9.421875 C 25.394531 -9.421875 26.203125 -9.644531 26.921875 -10.09375 C 27.640625 -10.539062 28.210938 -11.125 28.640625 -11.84375 C 29.066406 -12.5625 29.28125 -13.347656 29.28125 -14.203125 C 29.28125 -15.097656 29.066406 -15.90625 28.640625 -16.625 C 28.210938 -17.34375 27.640625 -17.925781 26.921875 -18.375 C 26.203125 -18.820312 25.394531 -19.046875 24.5 -19.046875 L 17.234375 -19.046875 C 14.492188 -19.046875 12 -19.582031 9.75 -20.65625 C 7.507812 -21.738281 5.726562 -23.320312 4.40625 -25.40625 C 3.082031 -27.488281 2.421875 -29.988281 2.421875 -32.90625 C 2.421875 -35.78125 3.046875 -38.269531 4.296875 -40.375 C 5.554688 -42.488281 7.265625 -44.140625 9.421875 -45.328125 C 11.578125 -46.515625 13.957031 -47.109375 16.5625 -47.109375 L 37.34375 -47.109375 L 37.34375 -37.6875 L 17.828125 -37.6875 C 17.023438 -37.6875 16.285156 -37.484375 15.609375 -37.078125 C 14.941406 -36.671875 14.425781 -36.128906 14.0625 -35.453125 C 13.707031 -34.785156 13.53125 -34.050781 13.53125 -33.25 C 13.53125 -32.4375 13.707031 -31.703125 14.0625 -31.046875 C 14.425781 -30.398438 14.941406 -29.875 15.609375 -29.46875 C 16.285156 -29.070312 17.023438 -28.875 17.828125 -28.875 L 25.4375 -28.875 C 28.445312 -28.875 31.0625 -28.300781 33.28125 -27.15625 C 35.5 -26.007812 37.222656 -24.414062 38.453125 -22.375 C 39.691406 -20.332031 40.3125 -17.941406 40.3125 -15.203125 C 40.3125 -11.972656 39.671875 -9.222656 38.390625 -6.953125 C 37.109375 -4.691406 35.390625 -2.96875 33.234375 -1.78125 C 31.085938 -0.59375 28.710938 0 26.109375 0 Z M 4.375 0 "/></g></g><g style="fill:#404040;fill-opacity:1;"><g transform="translate(193.05397, 65.19294)"><path style="stroke:none" d="M 22.140625 -35.328125 C 25.054688 -35.328125 27.644531 -34.867188 29.90625 -33.953125 C 32.175781 -33.035156 34.109375 -31.734375 35.703125 -30.046875 C 37.296875 -28.367188 38.515625 -26.394531 39.359375 -24.125 C 40.210938 -21.863281 40.640625 -19.363281 40.640625 -16.625 C 40.640625 -13.207031 39.929688 -10.1875 38.515625 -7.5625 C 37.109375 -4.945312 35.171875 -2.894531 32.703125 -1.40625 C 30.234375 0.0703125 27.363281 0.8125 24.09375 0.8125 C 22.695312 0.8125 21.382812 0.628906 20.15625 0.265625 C 18.925781 -0.0859375 17.804688 -0.597656 16.796875 -1.265625 C 15.785156 -1.941406 14.941406 -2.773438 14.265625 -3.765625 L 14.0625 -3.765625 L 14.0625 14.609375 L 3.640625 14.609375 L 3.640625 -16.625 C 3.640625 -20.4375 4.398438 -23.734375 5.921875 -26.515625 C 7.441406 -29.296875 9.59375 -31.457031 12.375 -33 C 15.164062 -34.550781 18.421875 -35.328125 22.140625 -35.328125 Z M 22.140625 -26.3125 C 20.523438 -26.3125 19.125 -25.914062 17.9375 -25.125 C 16.75 -24.34375 15.835938 -23.269531 15.203125 -21.90625 C 14.578125 -20.539062 14.265625 -19.003906 14.265625 -17.296875 C 14.265625 -15.585938 14.578125 -14.0625 15.203125 -12.71875 C 15.835938 -11.375 16.75 -10.304688 17.9375 -9.515625 C 19.125 -8.734375 20.523438 -8.34375 22.140625 -8.34375 C 23.753906 -8.34375 25.144531 -8.734375 26.3125 -9.515625 C 27.476562 -10.304688 28.382812 -11.375 29.03125 -12.71875 C 29.6875 -14.0625 30.015625 -15.585938 30.015625 -17.296875 C 30.015625 -19.003906 29.6875 -20.539062 29.03125 -21.90625 C 28.382812 -23.269531 27.476562 -24.34375 26.3125 -25.125 C 25.144531 -25.914062 23.753906 -26.3125 22.140625 -26.3125 Z M 22.140625 -26.3125 "/></g></g><g style="fill:#404040;fill-opacity:1;"><g transform="translate(235.980687, 65.19294)"><path style="stroke:none" d="M 21 0.8125 C 17.457031 0.8125 14.269531 0.0234375 11.4375 -1.546875 C 8.613281 -3.117188 6.378906 -5.269531 4.734375 -8 C 3.097656 -10.738281 2.28125 -13.816406 2.28125 -17.234375 C 2.28125 -20.679688 3.097656 -23.757812 4.734375 -26.46875 C 6.378906 -29.1875 8.613281 -31.34375 11.4375 -32.9375 C 14.269531 -34.53125 17.457031 -35.328125 21 -35.328125 C 24.539062 -35.328125 27.710938 -34.53125 30.515625 -32.9375 C 33.316406 -31.34375 35.535156 -29.1875 37.171875 -26.46875 C 38.816406 -23.757812 39.640625 -20.679688 39.640625 -17.234375 C 39.640625 -13.816406 38.816406 -10.738281 37.171875 -8 C 35.535156 -5.269531 33.304688 -3.117188 30.484375 -1.546875 C 27.660156 0.0234375 24.5 0.8125 21 0.8125 Z M 21 -8.28125 C 22.65625 -8.28125 24.085938 -8.679688 25.296875 -9.484375 C 26.515625 -10.296875 27.457031 -11.375 28.125 -12.71875 C 28.800781 -14.0625 29.140625 -15.585938 29.140625 -17.296875 C 29.140625 -18.953125 28.800781 -20.453125 28.125 -21.796875 C 27.457031 -23.148438 26.515625 -24.226562 25.296875 -25.03125 C 24.085938 -25.84375 22.65625 -26.25 21 -26.25 C 19.332031 -26.25 17.882812 -25.84375 16.65625 -25.03125 C 15.425781 -24.226562 14.472656 -23.148438 13.796875 -21.796875 C 13.117188 -20.453125 12.78125 -18.953125 12.78125 -17.296875 C 12.78125 -15.585938 13.117188 -14.0625 13.796875 -12.71875 C 14.472656 -11.375 15.425781 -10.296875 16.65625 -9.484375 C 17.882812 -8.679688 19.332031 -8.28125 21 -8.28125 Z M 21 -8.28125 "/></g></g><g style="fill:#404040;fill-opacity:1;"><g transform="translate(276.552288, 65.19294)"><path style="stroke:none" d="M 16.5625 0 C 13.375 0 10.878906 -0.90625 9.078125 -2.71875 C 7.285156 -4.539062 6.390625 -7 6.390625 -10.09375 L 6.390625 -42.9375 L 16.890625 -42.9375 L 16.890625 -10.703125 C 16.890625 -10.160156 17.078125 -9.695312 17.453125 -9.3125 C 17.835938 -8.9375 18.300781 -8.75 18.84375 -8.75 L 26.375 -8.75 L 26.375 0 Z M 0.734375 -25.984375 L 0.734375 -34.515625 L 26.375 -34.515625 L 26.375 -25.984375 Z M 0.734375 -25.984375 "/></g></g><g style="fill:#404040;fill-opacity:1;"><g transform="translate(305.4168, 65.19294)"><path style="stroke:none" d="M 16.5625 0 C 13.375 0 10.878906 -0.90625 9.078125 -2.71875 C 7.285156 -4.539062 6.390625 -7 6.390625 -10.09375 L 6.390625 -42.9375 L 16.890625 -42.9375 L 16.890625 -10.703125 C 16.890625 -10.160156 17.078125 -9.695312 17.453125 -9.3125 C 17.835938 -8.9375 18.300781 -8.75 18.84375 -8.75 L 26.375 -8.75 L 26.375 0 Z M 0.734375 -25.984375 L 0.734375 -34.515625 L 26.375 -34.515625 L 26.375 -25.984375 Z M 0.734375 -25.984375 "/></g></g><g style="fill:#404040;fill-opacity:1;"><g transform="translate(333.070016, 65.19294)"><path style="stroke:none" d="M 21.9375 0 C 18.03125 0 14.597656 -0.726562 11.640625 -2.1875 C 8.679688 -3.644531 6.378906 -5.660156 4.734375 -8.234375 C 3.097656 -10.816406 2.28125 -13.816406 2.28125 -17.234375 C 2.28125 -20.992188 3.066406 -24.21875 4.640625 -26.90625 C 6.210938 -29.601562 8.3125 -31.679688 10.9375 -33.140625 C 13.5625 -34.597656 16.46875 -35.328125 19.65625 -35.328125 C 23.289062 -35.328125 26.328125 -34.5625 28.765625 -33.03125 C 31.210938 -31.507812 33.0625 -29.4375 34.3125 -26.8125 C 35.570312 -24.1875 36.203125 -21.191406 36.203125 -17.828125 C 36.203125 -17.242188 36.164062 -16.5625 36.09375 -15.78125 C 36.03125 -15 35.957031 -14.382812 35.875 -13.9375 L 13.25 -13.9375 C 13.519531 -12.769531 14.035156 -11.78125 14.796875 -10.96875 C 15.566406 -10.164062 16.535156 -9.570312 17.703125 -9.1875 C 18.867188 -8.800781 20.171875 -8.609375 21.609375 -8.609375 L 32.171875 -8.609375 L 32.171875 0 Z M 12.984375 -20.453125 L 26.109375 -20.453125 C 26.023438 -21.171875 25.890625 -21.863281 25.703125 -22.53125 C 25.523438 -23.207031 25.242188 -23.804688 24.859375 -24.328125 C 24.484375 -24.847656 24.046875 -25.296875 23.546875 -25.671875 C 23.054688 -26.054688 22.484375 -26.359375 21.828125 -26.578125 C 21.179688 -26.804688 20.457031 -26.921875 19.65625 -26.921875 C 18.625 -26.921875 17.703125 -26.738281 16.890625 -26.375 C 16.085938 -26.019531 15.414062 -25.539062 14.875 -24.9375 C 14.332031 -24.332031 13.914062 -23.632812 13.625 -22.84375 C 13.332031 -22.0625 13.117188 -21.265625 12.984375 -20.453125 Z M 12.984375 -20.453125 "/></g></g><g style="fill:#404040;fill-opacity:1;"><g transform="translate(371.42146, 65.19294)"><path style="stroke:none" d="M 3.640625 0 L 3.640625 -24.359375 C 3.640625 -27.503906 4.535156 -29.972656 6.328125 -31.765625 C 8.117188 -33.554688 10.609375 -34.453125 13.796875 -34.453125 L 23.828125 -34.453125 L 23.828125 -25.984375 L 16.359375 -25.984375 C 15.722656 -25.984375 15.179688 -25.769531 14.734375 -25.34375 C 14.285156 -24.914062 14.0625 -24.363281 14.0625 -23.6875 L 14.0625 0 Z M 3.640625 0 "/></g></g></g></svg>